<svg xmlns="http://www.w3.org/2000/svg" viewBox="0 0 619.36 457.06"><defs><style>.cls-1{fill:#bf0603;}.cls-2{fill:#910000;}.cls-3{fill:#fff;}</style></defs><title>Fichier 1</title><g id="Calque_2" data-name="Calque 2"><g id="Calque_7_-_copie" data-name="Calque 7 - copie"><path d="M.51,0H36.76A17.75,17.75,0,0,1,54.51,17.75V331a0,0,0,0,1,0,0H.51a0,0,0,0,1,0,0V0A0,0,0,0,1,.51,0Z"/><path d="M278.91.5V331H247.36a27.69,27.69,0,0,1-12.22-2.4,28.57,28.57,0,0,1-9.49-8.11L95.51,153.7V64.53L226.33,231.6c-.45-5.34-.84-10.59-1.14-15.77s-.46-10-.46-14.41V.5Z"/><path class="cls-1" d="M619.36,331H298.91l4.21-11.69,6.36-17.67a21.88,21.88,0,0,1,7.09-9.6,19.29,19.29,0,0,1,11.64-4.3h.59v0H367v0h30.21v0H540.49l-13.83-37.78-16.12-43.77-40-109.45q-3-7.55-6.17-17.72T458.2,57.19Q455,68.85,451.8,78.9t-6.17,17.37L405.41,206.18H345.86L426.66.5h62.63l115.2,292.75Z"/><path class="cls-2" d="M54.51,121.35v-12C54.62,113.5,54.56,117.48,54.51,121.35Z"/><path d="M619.23,457.06H20A20,20,0,0,1,0,437V395.11H598.27a21,21,0,0,1,21,21Z"/><path class="cls-3" d="M50.5,409.6v5.88H37v8.35H48.23v5.91H37v12.83H29.27v-33Z"/><path class="cls-3" d="M64.39,430.38v12.2H56.74v-33H67.47a22,22,0,0,1,6.1.74,11.46,11.46,0,0,1,4.12,2,7.76,7.76,0,0,1,2.32,3.1,10.28,10.28,0,0,1,.72,3.89,10.46,10.46,0,0,1-.43,3A9.21,9.21,0,0,1,79,425a9.91,9.91,0,0,1-2.08,2.16,11.08,11.08,0,0,1-2.84,1.56,7.24,7.24,0,0,1,1.44,1,5.66,5.66,0,0,1,1.17,1.38l7,11.47H76.79A2.94,2.94,0,0,1,74,441.13l-5.48-9.57a2.3,2.3,0,0,0-.85-.91,2.84,2.84,0,0,0-1.37-.27Zm0-5.27h3.08a7.87,7.87,0,0,0,2.66-.4,4.81,4.81,0,0,0,1.8-1.1,4.18,4.18,0,0,0,1-1.64,6.3,6.3,0,0,0,.32-2,4.25,4.25,0,0,0-1.41-3.39,6.58,6.58,0,0,0-4.38-1.22H64.39Z"/><path class="cls-3" d="M120.52,426.08a17.72,17.72,0,0,1-1.23,6.65,15.73,15.73,0,0,1-8.87,8.92,19.69,19.69,0,0,1-14,0,15.74,15.74,0,0,1-8.9-8.92,18.56,18.56,0,0,1,0-13.31A15.82,15.82,0,0,1,91,414.08a16.11,16.11,0,0,1,5.42-3.55,18.44,18.44,0,0,1,7-1.29,18.22,18.22,0,0,1,7,1.3,16.16,16.16,0,0,1,5.4,3.56,15.91,15.91,0,0,1,3.47,5.34A17.66,17.66,0,0,1,120.52,426.08Zm-7.83,0a14.28,14.28,0,0,0-.63-4.4,9.33,9.33,0,0,0-1.82-3.32,7.86,7.86,0,0,0-2.91-2.08,10,10,0,0,0-3.92-.72,10.15,10.15,0,0,0-3.95.72,7.84,7.84,0,0,0-2.92,2.08,9.33,9.33,0,0,0-1.82,3.32,15.7,15.7,0,0,0,0,8.83,9.33,9.33,0,0,0,1.82,3.32,7.73,7.73,0,0,0,2.92,2.07,10.3,10.3,0,0,0,3.95.71,10.15,10.15,0,0,0,3.92-.71,7.75,7.75,0,0,0,2.91-2.07,9.33,9.33,0,0,0,1.82-3.32A14.36,14.36,0,0,0,112.69,426.08Z"/><path class="cls-3" d="M131.31,409.65a2.16,2.16,0,0,1,.61.17,2.05,2.05,0,0,1,.52.35,6,6,0,0,1,.57.61l15.66,19.8q-.09-1-.14-1.84t0-1.69V409.6h6.74v33h-4a3.67,3.67,0,0,1-1.49-.27,3.19,3.19,0,0,1-1.18-1L133,421.66q.07.86.11,1.69t0,1.55v17.67h-6.74v-33h4A6.49,6.49,0,0,1,131.31,409.65Z"/><path class="cls-3" d="M186.87,409.6v6.07h-9.28v26.91h-7.65V415.67h-9.28V409.6Z"/><path class="cls-3" d="M224.53,409.6v5.88H211v7.69h10.37v5.66H211v7.85h13.53v5.88H203.3v-33Z"/><path class="cls-3" d="M236,409.65a2.16,2.16,0,0,1,.61.17,2.05,2.05,0,0,1,.52.35,6,6,0,0,1,.57.61l15.66,19.8q-.09-1-.14-1.84t0-1.69V409.6h6.74v33h-4a3.67,3.67,0,0,1-1.49-.27,3.19,3.19,0,0,1-1.18-1l-15.55-19.64q.07.86.11,1.69t0,1.55v17.67h-6.74v-33h4A6.49,6.49,0,0,1,236,409.65Z"/><path class="cls-3" d="M297.53,426.08a17.29,17.29,0,0,1-1.23,6.6,15.45,15.45,0,0,1-3.47,5.23,15.76,15.76,0,0,1-5.4,3.44,19.09,19.09,0,0,1-7,1.23H267.61v-33h12.81a18.94,18.94,0,0,1,7,1.24,16,16,0,0,1,5.4,3.44,15.33,15.33,0,0,1,3.47,5.22A17.23,17.23,0,0,1,297.53,426.08Zm-7.83,0a14.36,14.36,0,0,0-.63-4.41,9.42,9.42,0,0,0-1.82-3.34,7.92,7.92,0,0,0-2.91-2.1,9.88,9.88,0,0,0-3.92-.74h-5.11v21.2h5.11a9.87,9.87,0,0,0,3.92-.74,7.91,7.91,0,0,0,2.91-2.1,9.42,9.42,0,0,0,1.82-3.34A14.44,14.44,0,0,0,289.7,426.08Z"/><path class="cls-3" d="M344.38,426.08a17.29,17.29,0,0,1-1.23,6.6,15.45,15.45,0,0,1-3.47,5.23,15.76,15.76,0,0,1-5.4,3.44,19.09,19.09,0,0,1-7,1.23H314.46v-33h12.81a18.94,18.94,0,0,1,7,1.24,16,16,0,0,1,5.4,3.44,15.33,15.33,0,0,1,3.47,5.22A17.23,17.23,0,0,1,344.38,426.08Zm-7.83,0a14.36,14.36,0,0,0-.63-4.41,9.42,9.42,0,0,0-1.82-3.34,7.92,7.92,0,0,0-2.91-2.1,9.88,9.88,0,0,0-3.92-.74h-5.11v21.2h5.11a9.87,9.87,0,0,0,3.92-.74,7.91,7.91,0,0,0,2.91-2.1,9.42,9.42,0,0,0,1.82-3.34A14.44,14.44,0,0,0,336.55,426.08Z"/><path class="cls-3" d="M371.53,409.6v5.88H358v7.69h10.37v5.66H358v7.85h13.53v5.88H350.3v-33Z"/><path class="cls-3" d="M375.42,409.6h6.16a2.74,2.74,0,0,1,1.63.45,2.48,2.48,0,0,1,.91,1.2l6.38,17.65q.43,1.15.87,2.51t.83,2.85q.32-1.49.74-2.85t.83-2.51l6.34-17.65a2.62,2.62,0,0,1,2.49-1.65h6.2l-13.22,33h-6.92Z"/><path class="cls-3" d="M435,409.6v5.88H421.45v7.69h10.37v5.66H421.45v7.85H435v5.88H413.76v-33Z"/><path class="cls-3" d="M449.24,436.46h12.22v6.11H441.6v-33h7.65Z"/><path class="cls-3" d="M498.08,426.08a17.72,17.72,0,0,1-1.23,6.65,15.73,15.73,0,0,1-8.87,8.92,19.69,19.69,0,0,1-14,0,15.74,15.74,0,0,1-8.9-8.92,18.56,18.56,0,0,1,0-13.31,15.82,15.82,0,0,1,3.48-5.34,16.11,16.11,0,0,1,5.42-3.55,18.44,18.44,0,0,1,7-1.29,18.22,18.22,0,0,1,7,1.3,16.16,16.16,0,0,1,5.4,3.56,15.91,15.91,0,0,1,3.47,5.34A17.66,17.66,0,0,1,498.08,426.08Zm-7.83,0a14.28,14.28,0,0,0-.63-4.4,9.33,9.33,0,0,0-1.82-3.32,7.86,7.86,0,0,0-2.91-2.08,10,10,0,0,0-3.92-.72,10.15,10.15,0,0,0-3.95.72,7.84,7.84,0,0,0-2.92,2.08,9.33,9.33,0,0,0-1.82,3.32,15.7,15.7,0,0,0,0,8.83,9.33,9.33,0,0,0,1.82,3.32,7.73,7.73,0,0,0,2.92,2.07,10.3,10.3,0,0,0,3.95.71,10.15,10.15,0,0,0,3.92-.71,7.75,7.75,0,0,0,2.91-2.07,9.33,9.33,0,0,0,1.82-3.32A14.36,14.36,0,0,0,490.25,426.08Z"/><path class="cls-3" d="M511.66,431.55v11H504v-33h11.63a19.19,19.19,0,0,1,6,.83,11.51,11.51,0,0,1,4.12,2.27,8.87,8.87,0,0,1,2.39,3.42,11.59,11.59,0,0,1,.77,4.25,12.51,12.51,0,0,1-.79,4.53,9.09,9.09,0,0,1-2.42,3.53,11.41,11.41,0,0,1-4.13,2.3,18.93,18.93,0,0,1-5.92.83Zm0-5.77h4q3,0,4.3-1.43a5.66,5.66,0,0,0,1.31-4,6,6,0,0,0-.34-2.06,4.2,4.2,0,0,0-1-1.6,4.63,4.63,0,0,0-1.74-1,7.71,7.71,0,0,0-2.5-.36h-4Z"/><path class="cls-3" d="M556.38,409.6v5.88H542.84v7.69h10.37v5.66H542.84v7.85h13.53v5.88H535.15v-33Z"/><path class="cls-3" d="M570.63,430.38v12.2H563v-33h10.73a22,22,0,0,1,6.1.74,11.46,11.46,0,0,1,4.12,2,7.76,7.76,0,0,1,2.32,3.1,10.28,10.28,0,0,1,.72,3.89,10.46,10.46,0,0,1-.43,3,9.21,9.21,0,0,1-1.28,2.64,9.91,9.91,0,0,1-2.08,2.16,11.08,11.08,0,0,1-2.84,1.56,7.24,7.24,0,0,1,1.44,1,5.66,5.66,0,0,1,1.17,1.38l7,11.47H583a2.94,2.94,0,0,1-2.76-1.45l-5.48-9.57a2.3,2.3,0,0,0-.85-.91,2.84,2.84,0,0,0-1.37-.27Zm0-5.27h3.08a7.87,7.87,0,0,0,2.66-.4,4.81,4.81,0,0,0,1.8-1.1,4.18,4.18,0,0,0,1-1.64,6.3,6.3,0,0,0,.32-2,4.25,4.25,0,0,0-1.41-3.39,6.58,6.58,0,0,0-4.38-1.22h-3.08Z"/></g></g></svg>