<svg xmlns="http://www.w3.org/2000/svg" viewBox="0 0 619.35 560.06"><defs><style>.cls-1{fill:#bf0603;}</style></defs><title>Fichier 1</title><g id="Calque_2" data-name="Calque 2"><g id="Calque_7_-_copie" data-name="Calque 7 - copie"><path d="M278.9,0V330.53H247.35a27.76,27.76,0,0,1-12.23-2.4,28.51,28.51,0,0,1-9.49-8.11L53.06,99.66q1.38,15.09,1.37,27.89v203H.25V0H32.49a58.14,58.14,0,0,1,6.74.34,16.25,16.25,0,0,1,5,1.37,16.56,16.56,0,0,1,4.23,3,48.47,48.47,0,0,1,4.57,5.14L93.87,61.95,226.32,231.1q-.68-8-1.14-15.77t-.46-14.4V0Z"/><path class="cls-1" d="M619.35,330.53H298.9l4.21-11.69,6.36-17.67a21.88,21.88,0,0,1,7.09-9.6,19.29,19.29,0,0,1,11.64-4.3h.59v0H367v0h30.21v0H540.48l-13.83-37.78-16.12-43.77-40-109.45q-3-7.55-6.17-17.72t-6.17-21.83q-3.2,11.66-6.4,21.72t-6.17,17.37L405.4,205.68H345.85L426.65,0h62.63l115.2,292.75Z"/><path d="M12.93,422.53h-.18q-.18.92-1.79,7.34t-2.06,8.39q-.46,2-.78,3.16t-.69,2.7a23,23,0,0,1-.69,2.38q-.32.87-.6,1.7-.55,1.56-1.1,1.56-1.19,0-3.12-2.61T0,442.88Q0,441.23,5.27,420t5.46-28.33a3.49,3.49,0,0,1,.64-2.2q.92-1.93,5.46-2.75a79.9,79.9,0,0,1,13.29-.83,80.4,80.4,0,0,1,13.75.92q5,.92,5,2.57,0,1.1-1.56,1.56t-2.75.69q-1.19.23-3.12.46t-3.58.37q-1.65.14-4.26.41l-4.81.5q-2.2.23-6,.69t-4.86.55a2.79,2.79,0,0,1,.09.83q0,4.31-3.58,19.81a93,93,0,0,0,12.24-.28q6.56-.55,8-.55,3.48,0,3.48,1.47,0,2.84-7.93,4.77A73.64,73.64,0,0,1,12.93,422.53Z"/><path d="M70.33,449.76q-1.37,0-3.12-2a6.24,6.24,0,0,1-1.74-4.08q0-2.06,5-19.85t5.78-27a6.43,6.43,0,0,1-2.11-2.29,5.6,5.6,0,0,1-.92-2.75q0-2.11,6.24-4.36a40.47,40.47,0,0,1,13.8-2.25,23.45,23.45,0,0,1,13.11,3.62A11.53,11.53,0,0,1,112,399a15.16,15.16,0,0,1-2.52,8.39,22.26,22.26,0,0,1-6.14,6.37,79.83,79.83,0,0,1-7.2,4.4q-3.58,1.93-6.1,3.16t-2.52,1.79q0,2,3.16,5.23t4.45,4.4l3.39,3.16q2.11,2,4,3.53t3,2.57q1.15,1,2.34,2.11,2.29,2.11,2.29,3.39,0,2.2-3,2.2-5.5,0-15.68-9.58T78.95,423.81q-4.31,14.3-5,16.55T72.53,445Q71.06,449.76,70.33,449.76Zm13.85-50.52q0,6-3.85,19.71a49.61,49.61,0,0,1,6-3.53q4.4-2.34,7.93-4.31a24.92,24.92,0,0,0,6.46-5.27,10.28,10.28,0,0,0,2.93-6.88q0-5.68-9.9-5.68a29.78,29.78,0,0,0-10.45,2.29A9,9,0,0,1,84.17,399.24Z"/><path d="M153.12,449.67q-6.05,0-10.59-6T138,431.61a50.31,50.31,0,0,1,3.07-17,59.93,59.93,0,0,1,7.7-15A46.51,46.51,0,0,1,159,389.11q5.59-4.08,10.36-4.08,7.7,0,12.84,7a26.12,26.12,0,0,1,5.13,15.82q0,8.8-4.86,18.48a51.58,51.58,0,0,1-13,16.5Q161.38,449.67,153.12,449.67ZM164.26,437a49.63,49.63,0,0,0,10.32-13.34q4.31-7.93,4.31-15t-2.7-11.46q-2.7-4.4-6.37-4.4t-9.17,5.68a55.89,55.89,0,0,0-9.9,14.9,40.94,40.94,0,0,0-4.4,17.65,14.07,14.07,0,0,0,2.2,8.21q2.2,3.16,5.13,3.16Q158.26,442.43,164.26,437Z"/><path d="M259.12,388.88q.18-3.94,1.88-3.94t3.71,2.11q2,2.11,2,3.76,0,7.52-2.34,21.36a175.32,175.32,0,0,1-6.23,25.67q-3.9,11.83-7.38,11.83a4.59,4.59,0,0,1-2.7-1.19,8.08,8.08,0,0,1-2.34-2.93q-2.75-6.42-16.23-40.71-2.75,10.64-6.1,24.07T219,446q-1.1,3.67-1.93,3.67-1.19,0-2.89-2.06a6.64,6.64,0,0,1-1.7-4.26q0-2.2,6-25.81t6.14-29.48q0-2.93,1.56-2.93,1,0,2.8,1.7a10.74,10.74,0,0,1,2.61,3.71q14.76,38.33,18.71,46.95,6-15.77,8-37.69Q259.12,389.7,259.12,388.88Z"/><path d="M314,393.28l-15.68.73q-1.47,0-3-1.93a6,6,0,0,1-1.56-3.76q0-1.65,5.27-2.11t23.15-.46a48.76,48.76,0,0,1,15.27,2q6,2,6,4.49,0,1.74-3,1.74t-8.44-.37q-5.41-.37-10.36-.46a7,7,0,0,1,.27,2q0,3.39-7.15,31.54-.73,2.94-2.2,9.17t-2.2,8.71q-1.29,4.86-2.29,4.86-1.37,0-3.07-2.06a6.54,6.54,0,0,1-1.7-4.17q0-2.11,5-21.68T314,393.28Z"/><path d="M429.57,420.69q-5,15.68-5,19a2.36,2.36,0,0,0,2.48,2.48,91.19,91.19,0,0,0,23.29-3.39,35.67,35.67,0,0,1,4.77-1.1q1.37,0,1.37,1.93,0,3.3-10.13,6.79a60.07,60.07,0,0,1-19.58,3.48,11.63,11.63,0,0,1-7.38-2.48,7.61,7.61,0,0,1-3.16-6.23q0-3.76,2.7-12.84T424.43,409a69.11,69.11,0,0,0,2.75-17.33,6.65,6.65,0,0,1,.37-2.11q1.56-3.39,20-3.39T466,388.79q0,1.84-3.94,2.48-3.3.64-8.76,1.15t-7.66.73q-2.2.23-10.64,1.7v.27q0,6.24-3.39,18.8.55.09,3.71.09t8.48-.46q5.32-.46,8-.46t2.7,1.28q0,3.21-7.52,4.77A86.46,86.46,0,0,1,429.57,420.69Z"/><path d="M534,388.88q.18-3.94,1.88-3.94T539.6,387q2,2.11,2,3.76,0,7.52-2.34,21.36A175.32,175.32,0,0,1,533,437.84q-3.9,11.83-7.38,11.83a4.59,4.59,0,0,1-2.7-1.19,8.08,8.08,0,0,1-2.34-2.93q-2.75-6.42-16.23-40.71-2.75,10.64-6.1,24.07T493.84,446q-1.1,3.67-1.93,3.67-1.19,0-2.89-2.06a6.64,6.64,0,0,1-1.7-4.26q0-2.2,6-25.81t6.14-29.48q0-2.93,1.56-2.93,1,0,2.8,1.7a10.74,10.74,0,0,1,2.61,3.71q14.76,38.33,18.71,46.95,6-15.77,8-37.69Q534,389.7,534,388.88Z"/><path d="M576.73,385.12a44.14,44.14,0,0,1,18.38,4.49A50.58,50.58,0,0,1,611.94,402Q619,410,619,418.49q0,5.59-7.75,13.16a76.59,76.59,0,0,1-17.93,12.93q-10.18,5.36-16.87,5.36-1.74,0-4-3a10,10,0,0,1-2.25-6.05q0-3.07,5.32-22.14t5.78-25.12a12.52,12.52,0,0,1-4.68-3.12,5.63,5.63,0,0,1-1.74-3.67Q574.9,385.12,576.73,385.12Zm33.83,32.37q0-5.68-6.79-12.33A40,40,0,0,0,588,395.57a14.65,14.65,0,0,1,.46,3.9,40.89,40.89,0,0,1-1.6,8.39Q585.26,414,581,428.4a105.21,105.21,0,0,0-2.84,13.3q6.33-.83,14.17-5.55a62.65,62.65,0,0,0,13-10.13Q610.56,420.6,610.56,417.49Z"/><path d="M9.72,495.15a44.14,44.14,0,0,1,18.38,4.49,50.58,50.58,0,0,1,16.83,12.42Q52,520,52,528.52q0,5.59-7.75,13.16a76.59,76.59,0,0,1-17.93,12.93Q16.14,560,9.44,560q-1.74,0-4-3a10,10,0,0,1-2.25-6.05q0-3.07,5.32-22.14t5.78-25.12a12.52,12.52,0,0,1-4.68-3.12,5.63,5.63,0,0,1-1.74-3.67Q7.88,495.15,9.72,495.15Zm33.83,32.37q0-5.68-6.79-12.33A40,40,0,0,0,21,505.6a14.65,14.65,0,0,1,.46,3.9,40.89,40.89,0,0,1-1.6,8.39Q18.24,524,14,538.43a105.21,105.21,0,0,0-2.84,13.3q6.33-.83,14.17-5.55a62.65,62.65,0,0,0,13-10.13Q43.55,530.63,43.55,527.51Z"/><path d="M92.42,530.72q-5,15.68-5,19a2.36,2.36,0,0,0,2.48,2.48,91.19,91.19,0,0,0,23.29-3.39,35.67,35.67,0,0,1,4.77-1.1q1.37,0,1.37,1.93,0,3.3-10.13,6.79a60.07,60.07,0,0,1-19.58,3.48,11.63,11.63,0,0,1-7.38-2.48,7.61,7.61,0,0,1-3.16-6.23q0-3.76,2.7-12.84T87.29,519A69.11,69.11,0,0,0,90,501.66a6.65,6.65,0,0,1,.37-2.11q1.56-3.39,20-3.39t18.43,2.66q0,1.84-3.94,2.48-3.3.64-8.76,1.15t-7.66.73q-2.2.23-10.64,1.7v.27q0,6.24-3.39,18.8.55.09,3.71.09t8.48-.46q5.32-.46,8-.46t2.7,1.28q0,3.21-7.52,4.77A86.46,86.46,0,0,1,92.42,530.72Z"/><path d="M195.3,495.42a5,5,0,0,1,2.93,1.05A3.1,3.1,0,0,1,199.7,499a12.47,12.47,0,0,1-1.7,4.81q-1.7,3.3-5.82,10.59t-7.06,13.16q-2.94,5.87-5.55,11.51t-4.13,9q-1.51,3.35-3,6.37-2.93,5.59-4.86,5.59-1.1,0-2.66-1.79a14.1,14.1,0,0,1-2.48-4.08q-2.48-6.14-6.65-28.42t-4.17-27.51q0-2.84,1.56-2.84a5.8,5.8,0,0,1,3.94,2,14.12,14.12,0,0,1,3.21,5q.55,1.65,2.7,18.29A221.87,221.87,0,0,0,168,547.78,273.35,273.35,0,0,1,183.1,513.3Q192.36,495.42,195.3,495.42Z"/><path d="M231.52,530.72q-5,15.68-5,19a2.36,2.36,0,0,0,2.48,2.48,91.19,91.19,0,0,0,23.29-3.39,35.67,35.67,0,0,1,4.77-1.1q1.37,0,1.37,1.93,0,3.3-10.13,6.79a60.07,60.07,0,0,1-19.58,3.48,11.63,11.63,0,0,1-7.38-2.48,7.61,7.61,0,0,1-3.16-6.23q0-3.76,2.7-12.84T226.38,519a69.11,69.11,0,0,0,2.75-17.33,6.65,6.65,0,0,1,.37-2.11q1.56-3.39,20-3.39t18.43,2.66q0,1.84-3.94,2.48-3.3.64-8.76,1.15t-7.66.73q-2.2.23-10.64,1.7v.27q0,6.24-3.39,18.8.55.09,3.71.09t8.48-.46q5.32-.46,8-.46t2.7,1.28q0,3.21-7.52,4.77A86.46,86.46,0,0,1,231.52,530.72Z"/><path d="M303.08,495.42a1.94,1.94,0,0,1,1.74-.64q1.33,0,3.35,2.29a7.27,7.27,0,0,1,2,4.86q0,6.42-7.89,32.46-3.94,12.65-3.94,15.13t2.38,2.48a86.54,86.54,0,0,0,22.74-3.39,29.3,29.3,0,0,1,4.72-1.1,1.36,1.36,0,0,1,1.05.32,2,2,0,0,1,.27,1.24q0,3.85-9.4,7.24A55.92,55.92,0,0,1,301,559.7a12,12,0,0,1-7.66-2.57,7.58,7.58,0,0,1-3.25-6.1q0-3.53,6.28-25.35t6.28-28.15A4,4,0,0,1,303.08,495.42Z"/><path d="M372.9,559.7q-6.05,0-10.59-6t-4.54-12.1a50.31,50.31,0,0,1,3.07-17,59.93,59.93,0,0,1,7.7-15,46.51,46.51,0,0,1,10.22-10.5q5.59-4.08,10.36-4.08,7.7,0,12.84,7a26.12,26.12,0,0,1,5.13,15.82q0,8.8-4.86,18.48a51.58,51.58,0,0,1-13,16.5Q381.15,559.7,372.9,559.7ZM384,547a49.63,49.63,0,0,0,10.32-13.34q4.31-7.93,4.31-15T396,507.25q-2.7-4.4-6.37-4.4t-9.17,5.68a55.89,55.89,0,0,0-9.9,14.9,40.94,40.94,0,0,0-4.4,17.65,14.07,14.07,0,0,0,2.2,8.21q2.2,3.16,5.13,3.16Q378,552.45,384,547Z"/><path d="M478.62,510.55q0,9.9-9.49,16.78t-25.08,9.9q-6.69,22.65-8,22.65t-3-2.06a6.41,6.41,0,0,1-1.74-4.13q0-2.06,2.66-11,8.25-27.41,8.62-38.24-2.2-2-2.2-3.67,0-2.29,6.24-4.4a37.18,37.18,0,0,1,11.92-2.11q8.8,0,14.44,4.49A14.3,14.3,0,0,1,478.62,510.55Zm-8.07.55a8.35,8.35,0,0,0-3.07-6.65,11,11,0,0,0-7.38-2.61q-4.31,0-10.45,2.75a9.15,9.15,0,0,1,.92,3.76q0,5.14-4.49,21.73,11-2.93,17.74-8.11T470.55,511.1Z"/><path d="M514.56,530.72q-5,15.68-5,19a2.36,2.36,0,0,0,2.48,2.48,91.19,91.19,0,0,0,23.29-3.39,35.67,35.67,0,0,1,4.77-1.1q1.37,0,1.37,1.93,0,3.3-10.13,6.79a60.07,60.07,0,0,1-19.58,3.48,11.63,11.63,0,0,1-7.38-2.48,7.61,7.61,0,0,1-3.16-6.23q0-3.76,2.7-12.84T509.43,519a69.11,69.11,0,0,0,2.75-17.33,6.65,6.65,0,0,1,.37-2.11q1.56-3.39,20-3.39T551,498.81q0,1.84-3.94,2.48-3.3.64-8.76,1.15t-7.66.73q-2.2.23-10.64,1.7v.27q0,6.24-3.39,18.8.55.09,3.71.09t8.48-.46q5.32-.46,8-.46t2.7,1.28q0,3.21-7.52,4.77A86.46,86.46,0,0,1,514.56,530.72Z"/><path d="M576.64,559.79q-1.37,0-3.12-2a6.24,6.24,0,0,1-1.74-4.08q0-2.06,5-19.85t5.78-27a6.43,6.43,0,0,1-2.11-2.29,5.6,5.6,0,0,1-.92-2.75q0-2.11,6.24-4.36a40.47,40.47,0,0,1,13.8-2.25,23.45,23.45,0,0,1,13.11,3.62A11.53,11.53,0,0,1,618.27,509a15.16,15.16,0,0,1-2.52,8.39,22.26,22.26,0,0,1-6.14,6.37,79.83,79.83,0,0,1-7.2,4.4q-3.58,1.93-6.1,3.16t-2.52,1.79q0,2,3.16,5.23t4.45,4.4l3.39,3.16q2.11,2,4,3.53t3,2.57q1.15,1,2.34,2.11,2.29,2.11,2.29,3.39,0,2.2-3,2.2-5.5,0-15.68-9.58t-12.47-16.27q-4.31,14.3-5,16.55T578.84,555Q577.37,559.79,576.64,559.79Zm13.85-50.52q0,6-3.85,19.71a49.61,49.61,0,0,1,6-3.53q4.4-2.34,7.93-4.31a24.92,24.92,0,0,0,6.46-5.27,10.28,10.28,0,0,0,2.93-6.88q0-5.68-9.9-5.68a29.78,29.78,0,0,0-10.45,2.29A9,9,0,0,1,590.48,509.27Z"/></g></g></svg>